<?xml version="1.0"?>
<svg xmlns="http://www.w3.org/2000/svg" xmlns:xlink="http://www.w3.org/1999/xlink" version="1.1" id="Capa_1" x="0px" y="0px" width="512px" height="512px" viewBox="0 0 90 90" style="enable-background:new 0 0 90 90;" xml:space="preserve" class=""><g><g>
	<path id="Posterous" d="M25.757,90V55.945l0.265-0.631h0.986l0.185,0.312c3.69,6.073,10.861,9.701,19.188,9.701   C60.625,65.327,75,54.923,75,31.681C75,13.023,64.052,0,48.369,0c-9.882,0-17.575,4.131-22.235,11.953l-0.441,0.304h-0.955   L24.081,1.318H15c0.272,6.184,0.505,12.424,0.505,20.199V90H25.757z M25.757,27.453c0-1.246,0.265-2.765,0.81-4.753   c2.109-8.669,9.602-14.727,18.225-14.727c11.599,0,19.692,9.965,19.692,24.234c0,15.355-7.887,25.281-20.093,25.281   c-8.599,0-15.875-5.644-18.081-14.04c-0.376-1.374-0.553-2.94-0.553-4.922V27.453z" data-original="#000000" class="active-path" data-old_color="#000000" fill="#0FAF32"/>
</g></g> </svg>
